<?xml version="1.0" standalone="no"?>
<svg xmlns="http://www.w3.org/2000/svg" xmlns:xlink="http://www.w3.org/1999/xlink" height="196px" width="113.16px">
  <defs>
    <pattern id="doodad" width="113.16" height="196" viewBox="0 0 34.64101615137755 60" patternUnits="userSpaceOnUse" patternTransform="rotate(60)">
      <rect width="100%" height="100%" fill="rgba(43, 42, 46,1)"/>
      <path d="M51.96 30L51.96 50L34.64 60L34.64 40z" stroke-linejoin="miter" fill="rgba(49, 48, 53,1)"/>
      <path d="M17.32 30L17.32 50L0 60L0 40z" stroke-linejoin="miter" fill="rgba(49, 48, 53,1)"/>
      <path d="M34.64 0L34.64 20L17.32 30L17.32 10z" stroke-linejoin="miter" fill="rgba(49, 48, 53,1)"/>
      <path d="M34.64 60L34.64 80L17.32 90L17.32 70z" stroke-linejoin="miter" fill="rgba(49, 48, 53,1)"/>
      <path d="M34.64 60L17.32 50L17.32 30L34.64 40z" stroke-linejoin="miter" fill="rgba(66, 62, 70,1)"/>
      <path d="M0 60L-17.32 50L-17.32 30L0 40z" stroke-linejoin="miter" fill="rgba(66, 62, 70,1)"/>
      <path d="M17.32 30L0 20L0 0L17.32 10z" stroke-linejoin="miter" fill="rgba(66, 62, 70,1)"/>
      <path d="M17.32 90L0 80L0 60L17.32 70z" stroke-linejoin="miter" fill="rgba(66, 62, 70,1)"/>
      <path d="M34.64 40L34.64 40L34.64 40L34.64 40z" stroke-linejoin="miter" fill="rgba(49, 48, 53,1)"/>
      <path d="M0 40L0 40L0 40L0 40z" stroke-linejoin="miter" fill="rgba(49, 48, 53,1)"/>
      <path d="M17.32 10L17.32 10L17.32 10L17.32 10z" stroke-linejoin="miter" fill="rgba(49, 48, 53,1)"/>
      <path d="M17.32 70L17.32 70L17.32 70L17.32 70z" stroke-linejoin="miter" fill="rgba(49, 48, 53,1)"/>
      <path d="M34.64 40L34.64 40L34.64 40L34.64 40z" stroke-linejoin="miter" fill="rgba(66, 62, 70,1)"/>
      <path d="M0 40L0 40L0 40L0 40z" stroke-linejoin="miter" fill="rgba(66, 62, 70,1)"/>
      <path d="M17.32 10L17.32 10L17.32 10L17.32 10z" stroke-linejoin="miter" fill="rgba(66, 62, 70,1)"/>
      <path d="M17.32 70L17.32 70L17.32 70L17.32 70z" stroke-linejoin="miter" fill="rgba(66, 62, 70,1)"/>
      <path d="M34.64 40L34.64 40L34.64 40L34.64 40z" stroke-linejoin="miter" background="true" fill="rgba(49, 48, 53,1)"/>
      <path d="M0 40L0 40L0 40L0 40z" stroke-linejoin="miter" background="true" fill="rgba(49, 48, 53,1)"/>
      <path d="M17.32 10L17.32 10L17.32 10L17.32 10z" stroke-linejoin="miter" background="true" fill="rgba(49, 48, 53,1)"/>
      <path d="M17.32 70L17.32 70L17.32 70L17.32 70z" stroke-linejoin="miter" background="true" fill="rgba(49, 48, 53,1)"/>
      <path d="M34.64 40L34.64 40L34.64 40L34.64 40z" stroke-linejoin="miter" fill="rgba(66, 62, 70,1)"/>
      <path d="M0 40L0 40L0 40L0 40z" stroke-linejoin="miter" fill="rgba(66, 62, 70,1)"/>
      <path d="M17.32 10L17.32 10L17.32 10L17.32 10z" stroke-linejoin="miter" fill="rgba(66, 62, 70,1)"/>
      <path d="M17.32 70L17.32 70L17.32 70L17.32 70z" stroke-linejoin="miter" fill="rgba(66, 62, 70,1)"/>
      <path d="M34.64 40L34.64 40L34.64 40L34.64 40z" stroke-linejoin="miter" fill="rgba(49, 48, 53,1)"/>
      <path d="M0 40L0 40L0 40L0 40z" stroke-linejoin="miter" fill="rgba(49, 48, 53,1)"/>
      <path d="M17.32 10L17.32 10L17.32 10L17.32 10z" stroke-linejoin="miter" fill="rgba(49, 48, 53,1)"/>
      <path d="M17.32 70L17.32 70L17.32 70L17.32 70z" stroke-linejoin="miter" fill="rgba(49, 48, 53,1)"/>
      <path d="M34.64 40L34.64 40L34.64 40L34.64 40z" stroke-linejoin="miter" background="true" fill="rgba(66, 62, 70,1)"/>
      <path d="M0 40L0 40L0 40L0 40z" stroke-linejoin="miter" background="true" fill="rgba(66, 62, 70,1)"/>
      <path d="M17.32 10L17.32 10L17.32 10L17.32 10z" stroke-linejoin="miter" background="true" fill="rgba(66, 62, 70,1)"/>
      <path d="M17.32 70L17.32 70L17.32 70L17.32 70z" stroke-linejoin="miter" background="true" fill="rgba(66, 62, 70,1)"/>
      <path d="M34.64 40L34.64 40L34.64 40L34.64 40z" stroke-linejoin="miter" fill="rgba(49, 48, 53,1)"/>
      <path d="M0 40L0 40L0 40L0 40z" stroke-linejoin="miter" fill="rgba(49, 48, 53,1)"/>
      <path d="M17.32 10L17.32 10L17.32 10L17.32 10z" stroke-linejoin="miter" fill="rgba(49, 48, 53,1)"/>
      <path d="M17.32 70L17.32 70L17.32 70L17.32 70z" stroke-linejoin="miter" fill="rgba(49, 48, 53,1)"/>
      <path d="M34.64 40L34.64 40L34.64 40L34.64 40z" stroke-linejoin="miter" fill="rgba(66, 62, 70,1)"/>
      <path d="M0 40L0 40L0 40L0 40z" stroke-linejoin="miter" fill="rgba(66, 62, 70,1)"/>
      <path d="M17.32 10L17.32 10L17.32 10L17.32 10z" stroke-linejoin="miter" fill="rgba(66, 62, 70,1)"/>
      <path d="M17.32 70L17.32 70L17.32 70L17.32 70z" stroke-linejoin="miter" fill="rgba(66, 62, 70,1)"/>
      <path d="M34.64 40L34.64 40L34.64 40L34.64 40z" stroke-linejoin="miter" background="true" fill="rgba(49, 48, 53,1)"/>
      <path d="M0 40L0 40L0 40L0 40z" stroke-linejoin="miter" background="true" fill="rgba(49, 48, 53,1)"/>
      <path d="M17.32 10L17.32 10L17.32 10L17.32 10z" stroke-linejoin="miter" background="true" fill="rgba(49, 48, 53,1)"/>
      <path d="M17.32 70L17.32 70L17.32 70L17.32 70z" stroke-linejoin="miter" background="true" fill="rgba(49, 48, 53,1)"/>
    </pattern>
  </defs>
  <rect fill="url(#doodad)" height="200%" width="200%"/>
</svg>
